<mxfile host="app.diagrams.net" agent="Mozilla/5.0 (Windows NT 10.0; Win64; x64; rv:133.0) Gecko/20100101 Firefox/133.0" version="25.0.3">
  <diagram name="Страница — 1" id="gQYbD8MDG3LQhOLavFnf">
    <mxGraphModel dx="1050" dy="566" grid="1" gridSize="10" guides="1" tooltips="1" connect="1" arrows="1" fold="1" page="1" pageScale="1" pageWidth="827" pageHeight="1169" math="0" shadow="0">
      <root>
        <mxCell id="0" />
        <mxCell id="1" parent="0" />
        <mxCell id="G3LlWuJJv1SQK-NdTPc2-1" style="edgeStyle=orthogonalEdgeStyle;rounded=0;orthogonalLoop=1;jettySize=auto;html=1;entryX=0.5;entryY=0;entryDx=0;entryDy=0;" edge="1" parent="1" source="G3LlWuJJv1SQK-NdTPc2-2" target="G3LlWuJJv1SQK-NdTPc2-4">
          <mxGeometry relative="1" as="geometry" />
        </mxCell>
        <mxCell id="G3LlWuJJv1SQK-NdTPc2-2" value="&lt;font style=&quot;font-size: 21px;&quot;&gt;Start&lt;/font&gt;" style="rounded=1;whiteSpace=wrap;html=1;glass=0;shadow=0;arcSize=50;" vertex="1" parent="1">
          <mxGeometry x="370" y="10" width="130" height="60" as="geometry" />
        </mxCell>
        <mxCell id="G3LlWuJJv1SQK-NdTPc2-3" value="" style="edgeStyle=orthogonalEdgeStyle;rounded=0;orthogonalLoop=1;jettySize=auto;html=1;" edge="1" parent="1" source="G3LlWuJJv1SQK-NdTPc2-4" target="G3LlWuJJv1SQK-NdTPc2-6">
          <mxGeometry relative="1" as="geometry" />
        </mxCell>
        <mxCell id="G3LlWuJJv1SQK-NdTPc2-4" value="&lt;div&gt;UserID,&lt;/div&gt;&lt;div&gt;RecieverID,&lt;/div&gt;&lt;div&gt;ChatName&lt;br&gt;&lt;/div&gt;" style="shape=parallelogram;perimeter=parallelogramPerimeter;whiteSpace=wrap;html=1;fixedSize=1;size=12.5;" vertex="1" parent="1">
          <mxGeometry x="367.5" y="90" width="135" height="60" as="geometry" />
        </mxCell>
        <mxCell id="G3LlWuJJv1SQK-NdTPc2-5" style="edgeStyle=orthogonalEdgeStyle;rounded=0;orthogonalLoop=1;jettySize=auto;html=1;entryX=0.5;entryY=0;entryDx=0;entryDy=0;" edge="1" parent="1" source="G3LlWuJJv1SQK-NdTPc2-6" target="G3LlWuJJv1SQK-NdTPc2-11">
          <mxGeometry relative="1" as="geometry" />
        </mxCell>
        <mxCell id="G3LlWuJJv1SQK-NdTPc2-6" value="&lt;font style=&quot;font-size: 14px;&quot;&gt;Validation&lt;br&gt;&lt;/font&gt;" style="whiteSpace=wrap;html=1;" vertex="1" parent="1">
          <mxGeometry x="375" y="170" width="120" height="60" as="geometry" />
        </mxCell>
        <mxCell id="G3LlWuJJv1SQK-NdTPc2-7" style="edgeStyle=orthogonalEdgeStyle;rounded=0;orthogonalLoop=1;jettySize=auto;html=1;entryX=0.5;entryY=0;entryDx=0;entryDy=0;" edge="1" parent="1" source="G3LlWuJJv1SQK-NdTPc2-11">
          <mxGeometry relative="1" as="geometry">
            <Array as="points">
              <mxPoint x="523" y="290" />
            </Array>
            <mxPoint x="523" y="410" as="targetPoint" />
          </mxGeometry>
        </mxCell>
        <mxCell id="G3LlWuJJv1SQK-NdTPc2-8" value="&lt;div&gt;Yes&lt;/div&gt;" style="edgeLabel;html=1;align=center;verticalAlign=middle;resizable=0;points=[];" vertex="1" connectable="0" parent="G3LlWuJJv1SQK-NdTPc2-7">
          <mxGeometry x="-0.8149" relative="1" as="geometry">
            <mxPoint as="offset" />
          </mxGeometry>
        </mxCell>
        <mxCell id="G3LlWuJJv1SQK-NdTPc2-9" style="edgeStyle=orthogonalEdgeStyle;rounded=0;orthogonalLoop=1;jettySize=auto;html=1;" edge="1" parent="1" source="G3LlWuJJv1SQK-NdTPc2-11" target="G3LlWuJJv1SQK-NdTPc2-13">
          <mxGeometry relative="1" as="geometry">
            <mxPoint x="240" y="190" as="targetPoint" />
          </mxGeometry>
        </mxCell>
        <mxCell id="G3LlWuJJv1SQK-NdTPc2-10" value="&lt;div&gt;No&lt;/div&gt;" style="edgeLabel;html=1;align=center;verticalAlign=middle;resizable=0;points=[];" vertex="1" connectable="0" parent="G3LlWuJJv1SQK-NdTPc2-9">
          <mxGeometry x="-0.528" y="-3" relative="1" as="geometry">
            <mxPoint as="offset" />
          </mxGeometry>
        </mxCell>
        <mxCell id="G3LlWuJJv1SQK-NdTPc2-11" value="&lt;div&gt;Input data&lt;/div&gt;&lt;div&gt;is valid?&lt;br&gt;&lt;/div&gt;" style="rhombus;whiteSpace=wrap;html=1;" vertex="1" parent="1">
          <mxGeometry x="387.5" y="250" width="95" height="80" as="geometry" />
        </mxCell>
        <mxCell id="G3LlWuJJv1SQK-NdTPc2-12" style="edgeStyle=orthogonalEdgeStyle;rounded=0;orthogonalLoop=1;jettySize=auto;html=1;" edge="1" parent="1" source="G3LlWuJJv1SQK-NdTPc2-13">
          <mxGeometry relative="1" as="geometry">
            <mxPoint x="430" y="80" as="targetPoint" />
            <Array as="points">
              <mxPoint x="240" y="80" />
            </Array>
          </mxGeometry>
        </mxCell>
        <mxCell id="G3LlWuJJv1SQK-NdTPc2-13" value="Warning (&quot;Your {invalid element} is invalid&quot;)" style="rounded=0;whiteSpace=wrap;html=1;" vertex="1" parent="1">
          <mxGeometry x="170" y="170" width="120" height="60" as="geometry" />
        </mxCell>
        <mxCell id="G3LlWuJJv1SQK-NdTPc2-24" style="edgeStyle=orthogonalEdgeStyle;rounded=0;orthogonalLoop=1;jettySize=auto;html=1;entryX=0.5;entryY=0;entryDx=0;entryDy=0;" edge="1" parent="1" source="G3LlWuJJv1SQK-NdTPc2-15" target="G3LlWuJJv1SQK-NdTPc2-16">
          <mxGeometry relative="1" as="geometry" />
        </mxCell>
        <mxCell id="G3LlWuJJv1SQK-NdTPc2-15" value="Database record creation" style="whiteSpace=wrap;html=1;" vertex="1" parent="1">
          <mxGeometry x="462.81" y="410" width="120" height="60" as="geometry" />
        </mxCell>
        <mxCell id="G3LlWuJJv1SQK-NdTPc2-25" style="edgeStyle=orthogonalEdgeStyle;rounded=0;orthogonalLoop=1;jettySize=auto;html=1;exitX=0.5;exitY=1;exitDx=0;exitDy=0;entryX=0.5;entryY=0;entryDx=0;entryDy=0;" edge="1" parent="1" source="G3LlWuJJv1SQK-NdTPc2-16" target="G3LlWuJJv1SQK-NdTPc2-21">
          <mxGeometry relative="1" as="geometry" />
        </mxCell>
        <mxCell id="G3LlWuJJv1SQK-NdTPc2-16" value="&lt;div&gt;Request result&lt;/div&gt;&lt;div&gt;status&lt;br&gt;&lt;/div&gt;" style="shape=parallelogram;perimeter=parallelogramPerimeter;whiteSpace=wrap;html=1;fixedSize=1;size=15;" vertex="1" parent="1">
          <mxGeometry x="462.81" y="490" width="120" height="60" as="geometry" />
        </mxCell>
        <mxCell id="G3LlWuJJv1SQK-NdTPc2-17" style="edgeStyle=orthogonalEdgeStyle;rounded=0;orthogonalLoop=1;jettySize=auto;html=1;" edge="1" parent="1" source="G3LlWuJJv1SQK-NdTPc2-21" target="G3LlWuJJv1SQK-NdTPc2-23">
          <mxGeometry relative="1" as="geometry">
            <mxPoint x="685" y="269.9999999999999" as="targetPoint" />
          </mxGeometry>
        </mxCell>
        <mxCell id="G3LlWuJJv1SQK-NdTPc2-18" value="&lt;div&gt;No&lt;/div&gt;" style="edgeLabel;html=1;align=center;verticalAlign=middle;resizable=0;points=[];" vertex="1" connectable="0" parent="G3LlWuJJv1SQK-NdTPc2-17">
          <mxGeometry x="-0.7344" relative="1" as="geometry">
            <mxPoint as="offset" />
          </mxGeometry>
        </mxCell>
        <mxCell id="G3LlWuJJv1SQK-NdTPc2-19" value="" style="edgeStyle=orthogonalEdgeStyle;rounded=0;orthogonalLoop=1;jettySize=auto;html=1;entryX=0.5;entryY=0;entryDx=0;entryDy=0;" edge="1" parent="1">
          <mxGeometry relative="1" as="geometry">
            <mxPoint x="480.00000000000045" y="610.0000000000002" as="sourcePoint" />
            <mxPoint x="435" y="690" as="targetPoint" />
            <Array as="points">
              <mxPoint x="435" y="610" />
            </Array>
          </mxGeometry>
        </mxCell>
        <mxCell id="G3LlWuJJv1SQK-NdTPc2-20" value="Yes" style="edgeLabel;html=1;align=center;verticalAlign=middle;resizable=0;points=[];" vertex="1" connectable="0" parent="G3LlWuJJv1SQK-NdTPc2-19">
          <mxGeometry x="-0.46" y="3" relative="1" as="geometry">
            <mxPoint as="offset" />
          </mxGeometry>
        </mxCell>
        <mxCell id="G3LlWuJJv1SQK-NdTPc2-21" value="result status &lt;br&gt;is success?" style="rhombus;whiteSpace=wrap;html=1;" vertex="1" parent="1">
          <mxGeometry x="460" y="570" width="125.62" height="80" as="geometry" />
        </mxCell>
        <mxCell id="G3LlWuJJv1SQK-NdTPc2-22" style="edgeStyle=orthogonalEdgeStyle;rounded=0;orthogonalLoop=1;jettySize=auto;html=1;" edge="1" parent="1" source="G3LlWuJJv1SQK-NdTPc2-23">
          <mxGeometry relative="1" as="geometry">
            <mxPoint x="440" y="80" as="targetPoint" />
            <Array as="points">
              <mxPoint x="720" y="80" />
            </Array>
          </mxGeometry>
        </mxCell>
        <mxCell id="G3LlWuJJv1SQK-NdTPc2-23" value="Warning (&quot;The error occurred, please try again&quot;)" style="rounded=0;whiteSpace=wrap;html=1;" vertex="1" parent="1">
          <mxGeometry x="657.81" y="509.9999999999999" width="120" height="60" as="geometry" />
        </mxCell>
        <mxCell id="G3LlWuJJv1SQK-NdTPc2-29" style="edgeStyle=orthogonalEdgeStyle;rounded=0;orthogonalLoop=1;jettySize=auto;html=1;exitX=0.5;exitY=1;exitDx=0;exitDy=0;entryX=0.5;entryY=0;entryDx=0;entryDy=0;" edge="1" parent="1" source="G3LlWuJJv1SQK-NdTPc2-26" target="G3LlWuJJv1SQK-NdTPc2-27">
          <mxGeometry relative="1" as="geometry" />
        </mxCell>
        <mxCell id="G3LlWuJJv1SQK-NdTPc2-26" value="Alarm(&quot;You have been created a new chat&quot;)" style="whiteSpace=wrap;html=1;" vertex="1" parent="1">
          <mxGeometry x="375" y="690" width="120" height="60" as="geometry" />
        </mxCell>
        <mxCell id="G3LlWuJJv1SQK-NdTPc2-30" style="edgeStyle=orthogonalEdgeStyle;rounded=0;orthogonalLoop=1;jettySize=auto;html=1;entryX=0.5;entryY=0;entryDx=0;entryDy=0;" edge="1" parent="1" source="G3LlWuJJv1SQK-NdTPc2-27" target="G3LlWuJJv1SQK-NdTPc2-28">
          <mxGeometry relative="1" as="geometry" />
        </mxCell>
        <mxCell id="G3LlWuJJv1SQK-NdTPc2-27" value="Redirect to new chat" style="whiteSpace=wrap;html=1;" vertex="1" parent="1">
          <mxGeometry x="375" y="770" width="120" height="60" as="geometry" />
        </mxCell>
        <mxCell id="G3LlWuJJv1SQK-NdTPc2-28" value="End" style="rounded=1;whiteSpace=wrap;html=1;glass=0;shadow=0;arcSize=50;" vertex="1" parent="1">
          <mxGeometry x="370" y="850" width="130" height="60" as="geometry" />
        </mxCell>
      </root>
    </mxGraphModel>
  </diagram>
</mxfile>
